<svg width="262" height="262" viewBox="0 0 262 262" fill="none" xmlns="http://www.w3.org/2000/svg">
<path d="M140.802 159.518C146.249 166.327 152.298 173.801 156.541 179.026C161.26 164.839 154.958 145.014 147.927 130.192C146.249 139.408 143.905 149.162 140.802 159.518Z" fill="#F2C94C"/>
<path d="M107.612 107.011C100.613 113.725 94.3429 126.266 99.0616 145.869C103.305 145.521 109.322 145.046 114.77 144.539C111.666 130.604 109.322 118.158 107.612 107.011Z" fill="#F2994A"/>
<path opacity="0.2" d="M122.687 176.841C83.5435 26.5389 115.751 13.7762 127.912 8.64575C140.073 27.8373 172.249 77.7482 133.074 182.827L122.687 176.841Z" fill="url(#paint0_linear)"/>
<path opacity="0.1" d="M134.214 168.196C95.0712 17.9248 127.247 5.13043 139.44 0C151.601 19.1916 183.777 69.1024 144.602 174.181L134.214 168.196Z" fill="url(#paint1_linear)"/>
<path opacity="0.15" d="M133.074 182.827C172.249 77.7482 140.073 27.8373 127.912 8.64575V179.85L133.074 182.827Z" fill="url(#paint2_linear)"/>
<path opacity="0.1" d="M139.567 61.565C139.567 70.7175 134.183 75.0245 127.532 71.1925C120.882 67.3605 115.498 56.8146 115.498 47.6622C115.498 38.5098 120.882 34.2028 127.532 38.0347C134.183 41.8667 139.567 52.4126 139.567 61.565Z" fill="white"/>
<path opacity="0.1" d="M131.753 204.326C130.242 201.901 129.513 198.826 128.87 196.128C128.123 193.019 127.498 190.371 125.935 189.705C124.146 188.937 123.347 190.884 122.218 193.583C121.559 195.171 120.777 197.05 119.631 198.775C118.398 197.494 117.095 196.435 115.723 195.666C109.974 192.404 105.181 195.222 104.052 201.952C103.271 201.371 102.489 200.842 101.69 200.38C92.468 195.154 85 201.081 85 213.652C85 226.206 92.468 240.622 101.673 245.848C110.617 250.921 117.929 245.472 118.346 233.67C120.03 236.744 122.271 239.324 124.754 240.724C125.397 241.083 126.022 241.356 126.612 241.527C130.19 249.264 135.522 255.926 141.479 259.307C152.247 265.422 160.983 258.522 161 243.901C161 229.28 152.264 212.456 141.496 206.342C137.936 204.326 134.619 203.711 131.753 204.326Z" fill="url(#paint3_linear)"/>
<path opacity="0.3" d="M168.829 113.155L254.558 162.654L254.589 207.339L176.43 162.21L168.861 164.68L168.829 113.155Z" fill="url(#paint4_linear)"/>
<path d="M229.634 170.508V158.378L262 177.063V189.192L229.634 170.508Z" fill="#F2C94C"/>
<path opacity="0.1" d="M190.871 136.748L209.651 147.579V151.506L190.871 140.675V136.748Z" fill="white"/>
<path opacity="0.1" d="M190.902 144.602L224.789 164.174V168.101L190.902 148.529V144.602Z" fill="white"/>
<path opacity="0.15" d="M190.902 152.456L234.764 177.791V181.718L190.902 156.383V152.456Z" fill="white"/>
<path d="M186.247 138.173C186.247 141.847 184.062 143.588 181.37 142.037C178.678 140.485 176.493 136.241 176.493 132.567C176.493 128.894 178.678 127.152 181.37 128.704C184.094 130.256 186.247 134.499 186.247 138.173Z" fill="#F2C94C"/>
<path opacity="0.3" d="M94.881 50.0375L9.15224 0.570068L9.18391 45.2555L87.3438 90.3525L94.9127 101.563L94.881 50.0375Z" fill="url(#paint5_linear)"/>
<path d="M0 17.9882V5.85889L32.366 24.5438V36.6731L0 17.9882Z" fill="#F2994A"/>
<path opacity="0.15" d="M72.8395 48.2008L54.0596 37.3699V41.2969L72.8395 52.1278V48.2008Z" fill="white"/>
<path opacity="0.15" d="M72.8395 56.0546L36.6414 35.1528V39.0798L72.8395 59.9816V56.0546Z" fill="white"/>
<path opacity="0.15" d="M72.8394 63.9087L28.9774 38.5732V42.5002L72.8394 67.8357V63.9087Z" fill="white"/>
<path d="M77.463 54.9463C77.463 58.6199 79.6482 62.8636 82.3401 64.4154C85.032 65.9672 87.2171 64.2254 87.2171 60.5517C87.2171 56.8781 85.032 52.6344 82.3401 51.0826C79.6482 49.5625 77.463 51.2726 77.463 54.9463Z" fill="#F2994A"/>
<path opacity="0.2" d="M83.4801 97.7315L32.2708 68.1841V94.8496L83.4801 124.397V97.7315Z" fill="url(#paint6_linear)"/>
<path opacity="0.15" d="M45.382 82.1501L62.9268 92.2843V95.4829L45.382 85.3487V82.1501Z" fill="white"/>
<path opacity="0.15" d="M45.382 88.5789L78.1915 107.517V110.747L45.382 91.8091V88.5789Z" fill="white"/>
<path d="M42.69 83.1003C42.69 85.2855 41.3916 86.3306 39.7765 85.4121C38.1613 84.4937 36.8629 81.9602 36.8629 79.7433C36.8629 77.5582 38.1613 76.5131 39.7765 77.4315C41.3599 78.3816 42.69 80.9151 42.69 83.1003Z" fill="#F2994A"/>
<path opacity="0.2" d="M235.556 117.873L184.347 88.3257V114.991L235.556 144.57V117.873Z" fill="url(#paint7_linear)"/>
<path opacity="0.15" d="M197.458 102.323L215.003 112.458V115.656L197.458 105.522V102.323Z" fill="white"/>
<path opacity="0.15" d="M197.49 108.752L230.299 127.691V130.921L197.49 111.983V108.752Z" fill="white"/>
<path d="M194.766 103.274C194.766 105.459 193.468 106.504 191.853 105.586C190.237 104.667 188.939 102.134 188.939 99.9169C188.939 97.7317 190.237 96.6867 191.853 97.6051C193.468 98.5551 194.766 101.089 194.766 103.274Z" fill="#F2C94C"/>
<defs>
<linearGradient id="paint0_linear" x1="173.546" y1="13.9747" x2="75.1014" y2="184.531" gradientUnits="userSpaceOnUse">
<stop stop-color="white"/>
<stop offset="1" stop-color="white" stop-opacity="0"/>
</linearGradient>
<linearGradient id="paint1_linear" x1="185.071" y1="5.33131" x2="86.6262" y2="175.887" gradientUnits="userSpaceOnUse">
<stop stop-color="white"/>
<stop offset="1" stop-color="white" stop-opacity="0"/>
</linearGradient>
<linearGradient id="paint2_linear" x1="155.188" y1="51.1656" x2="79.1931" y2="188.287" gradientUnits="userSpaceOnUse">
<stop stop-color="white" stop-opacity="0"/>
<stop offset="1" stop-color="white"/>
</linearGradient>
<linearGradient id="paint3_linear" x1="137.702" y1="204.193" x2="114.962" y2="244.252" gradientUnits="userSpaceOnUse">
<stop stop-color="white"/>
<stop offset="1" stop-color="white" stop-opacity="0"/>
</linearGradient>
<linearGradient id="paint4_linear" x1="205.664" y1="114.601" x2="216.748" y2="204.5" gradientUnits="userSpaceOnUse">
<stop stop-color="white"/>
<stop offset="1" stop-color="white" stop-opacity="0"/>
</linearGradient>
<linearGradient id="paint5_linear" x1="76.1855" y1="32.1445" x2="31.9175" y2="66.805" gradientUnits="userSpaceOnUse">
<stop stop-color="white"/>
<stop offset="1" stop-color="white" stop-opacity="0"/>
</linearGradient>
<linearGradient id="paint6_linear" x1="63.6453" y1="86.2757" x2="52.097" y2="106.283" gradientUnits="userSpaceOnUse">
<stop stop-color="white"/>
<stop offset="1" stop-color="white" stop-opacity="0"/>
</linearGradient>
<linearGradient id="paint7_linear" x1="215.741" y1="106.442" x2="204.193" y2="126.449" gradientUnits="userSpaceOnUse">
<stop stop-color="white"/>
<stop offset="1" stop-color="white" stop-opacity="0"/>
</linearGradient>
</defs>
</svg>
