<svg width="174" height="262" viewBox="0 0 174 262" fill="none" xmlns="http://www.w3.org/2000/svg">
<path opacity="0.4" d="M98.5313 75.0001C96.4089 73.7766 94.8857 73.7516 93.9618 74.9002C93.013 76.0489 92.5635 77.9965 92.5635 80.7182V95.4505C92.5635 98.2471 92.3138 100.569 91.7895 102.417C91.2651 104.34 90.3911 105.688 89.1926 106.487C88.019 107.311 86.4209 107.511 84.3984 107.136C82.4257 106.787 79.9537 105.738 77.0073 104.04L75.6089 103.216V91.6051L77.3818 92.6289C79.5043 93.8524 80.9026 94.0022 81.6017 93.1283C82.3508 92.2543 82.7254 90.4565 82.7254 87.7348V74.7504C82.7254 71.3545 83.05 68.6827 83.7242 66.7351C84.3734 64.7624 85.6968 63.5139 87.6694 62.9646C85.6968 60.143 84.3734 57.3464 83.7242 54.6246C83.075 51.9029 82.7503 48.8566 82.7503 45.4607V32.4763C82.7503 29.7546 82.3758 27.5073 81.6267 25.7844C80.9275 24.0864 79.5043 22.6132 77.4068 21.3897L75.6339 20.3659V8.75488L77.0322 9.57889C79.9787 11.2768 82.4507 13.0997 84.4233 15.0223C86.4459 16.97 88.044 19.0175 89.2176 21.2149C90.4411 23.4122 91.315 25.7594 91.8144 28.2814C92.3388 30.7284 92.5885 33.3503 92.5885 36.1469V50.8792C92.5885 53.6009 93.0629 56.0979 93.9868 58.3202C94.9357 60.5425 96.4588 62.2904 98.5563 63.489L98.5313 75.0001Z" fill="url(#paint0_linear)"/>
<path opacity="0.4" d="M45.0456 32.3265C47.168 33.5501 48.6912 33.575 49.6151 32.4264C50.5639 31.2778 51.0134 29.3301 51.0134 26.6084V11.8762C51.0134 9.07953 51.2631 6.75733 51.7874 4.90956C52.3118 2.98687 53.1608 1.6385 54.3344 0.814488C55.5579 0.0154502 57.156 -0.184309 59.1286 0.16527C61.1512 0.539819 63.6482 1.58856 66.5946 3.31148L67.9929 4.13549V15.7465L66.2201 14.7227C64.0976 13.4992 62.6743 13.3244 61.9252 14.1984C61.2261 15.0973 60.8765 16.8951 60.8765 19.6418V32.6262C60.8765 35.9971 60.5519 38.6939 59.8777 40.6415C59.2285 42.6141 57.9051 43.8626 55.9325 44.412C57.9051 47.2336 59.2285 50.0302 59.8777 52.7519C60.5269 55.4737 60.8515 58.52 60.8515 61.9159V74.9003C60.8515 77.622 61.2011 79.8443 61.9003 81.5672C62.6494 83.2902 64.0726 84.7884 66.1951 85.9869L67.968 87.0107V98.6217L66.5696 97.7977C63.6232 96.0997 61.1262 94.252 59.1036 92.3293C57.131 90.4066 55.5329 88.3591 54.3094 86.1367C53.1358 83.9644 52.2868 81.6172 51.7874 79.1202C51.2631 76.6731 51.0134 74.0513 51.0134 71.2547V56.5224C51.0134 53.8007 50.5389 51.3037 49.6151 49.0814C48.6662 46.859 47.143 45.1111 45.0456 43.9126V32.3265Z" fill="url(#paint1_linear)"/>
<path opacity="0.15" d="M105.748 3.21167L158.459 33.65L158.434 160.023L105.723 129.609L105.748 3.21167Z" fill="url(#paint2_linear)"/>
<path d="M95.8345 19.7666L137.784 43.9625V55.5735L95.8345 31.3776V19.7666Z" fill="#F2C94C"/>
<path opacity="0.2" d="M112.614 73.5271L152.367 96.4745V131.607L112.614 108.66V73.5271Z" fill="url(#paint3_linear)"/>
<path opacity="0.15" d="M112.215 46.5842L152.566 69.8812V73.8514L112.215 50.5544V46.5842Z" fill="white"/>
<path opacity="0.15" d="M112.215 54.5747L147.098 74.7005V78.6707L112.215 58.5449V54.5747Z" fill="white"/>
<path opacity="0.15" d="M112.215 62.4653L141.829 79.5448V83.515L112.215 66.4355V62.4653Z" fill="white"/>
<path opacity="0.2" d="M105.748 3.21167L158.459 33.65V50.5796L105.723 20.1663L105.748 3.21167Z" fill="url(#paint4_linear)"/>
<path opacity="0.2" d="M118.907 19.392C118.907 21.9639 117.408 23.1625 115.561 22.0888C113.713 21.0151 112.215 18.0936 112.215 15.5217C112.215 12.9498 113.713 11.7512 115.561 12.8249C117.408 13.8986 118.907 16.8451 118.907 19.392Z" fill="white"/>
<path opacity="0.15" d="M10.762 41.915L173.017 135.552L172.992 262L10.737 168.363L10.762 41.915Z" fill="url(#paint5_linear)"/>
<path d="M0 73.0774L41.9245 97.2733V108.884L0 84.7134V73.0774Z" fill="#F2994A"/>
<path opacity="0.15" d="M21.6988 104.989L114.787 158.724V162.694L21.6988 108.959V104.989Z" fill="white"/>
<path opacity="0.15" d="M21.6988 112.979L102.002 159.324V163.294L21.6988 116.95V112.979Z" fill="white"/>
<path opacity="0.15" d="M21.6988 120.895L90.0415 160.347V164.317L21.6988 124.865V120.895Z" fill="white"/>
<path opacity="0.2" d="M84.5232 171.234L166.375 218.477V253.61L84.5232 206.367V171.234Z" fill="url(#paint6_linear)"/>
<path opacity="0.15" d="M90.6909 181.747L103.026 188.863V200.474L90.6909 193.358V181.747Z" fill="white"/>
<path opacity="0.15" d="M105.798 191.035L118.133 198.152V209.763L105.798 202.646V191.035Z" fill="white"/>
<path opacity="0.15" d="M120.979 199.65L133.314 206.766V218.377L120.979 211.261V199.65Z" fill="white"/>
<path opacity="0.15" d="M136.161 208.814L148.496 215.93V227.541L136.161 220.425V208.814Z" fill="white"/>
<path opacity="0.2" d="M6.46704 124.84L74.61 164.168V199.3L6.46704 159.948V124.84Z" fill="url(#paint7_linear)"/>
<path opacity="0.15" d="M13.3338 137.8L67.4686 169.037V173.007L13.3338 141.77V137.8Z" fill="white"/>
<path opacity="0.15" d="M13.3338 145.79L56.6816 170.81V174.78L13.3338 149.735V145.79Z" fill="white"/>
<path opacity="0.2" d="M10.7619 41.915L172.792 135.452V152.582L10.7619 59.0694V41.915Z" fill="url(#paint8_linear)"/>
<path opacity="0.2" d="M28.4158 60.6674C28.4158 63.2393 26.9176 64.4379 25.0698 63.3642C23.222 62.2905 21.7238 59.369 21.7238 56.7971C21.7238 54.2252 23.222 53.0266 25.0698 54.1003C26.9176 55.174 28.4158 58.1205 28.4158 60.6674Z" fill="white"/>
<defs>
<linearGradient id="paint0_linear" x1="112.904" y1="5.2505" x2="72.0082" y2="76.1469" gradientUnits="userSpaceOnUse">
<stop stop-color="white"/>
<stop offset="0.903" stop-color="white" stop-opacity="0"/>
</linearGradient>
<linearGradient id="paint1_linear" x1="89.294" y1="0.444208" x2="48.393" y2="71.3319" gradientUnits="userSpaceOnUse">
<stop stop-color="white"/>
<stop offset="0.903" stop-color="white" stop-opacity="0"/>
</linearGradient>
<linearGradient id="paint2_linear" x1="159.45" y1="34.2242" x2="109.047" y2="121.548" gradientUnits="userSpaceOnUse">
<stop stop-color="white"/>
<stop offset="1" stop-color="white" stop-opacity="0"/>
</linearGradient>
<linearGradient id="paint3_linear" x1="140.102" y1="89.3753" x2="126.094" y2="113.645" gradientUnits="userSpaceOnUse">
<stop stop-color="white"/>
<stop offset="1" stop-color="white" stop-opacity="0"/>
</linearGradient>
<linearGradient id="paint4_linear" x1="123.82" y1="3.47423" x2="139.892" y2="48.9757" gradientUnits="userSpaceOnUse">
<stop stop-color="white"/>
<stop offset="1" stop-color="white" stop-opacity="0"/>
</linearGradient>
<linearGradient id="paint5_linear" x1="119.252" y1="104.523" x2="92.5546" y2="150.788" gradientUnits="userSpaceOnUse">
<stop stop-color="white"/>
<stop offset="1" stop-color="white" stop-opacity="0"/>
</linearGradient>
<linearGradient id="paint6_linear" x1="133.063" y1="199.246" x2="119.055" y2="223.515" gradientUnits="userSpaceOnUse">
<stop stop-color="white"/>
<stop offset="1" stop-color="white" stop-opacity="0"/>
</linearGradient>
<linearGradient id="paint7_linear" x1="48.1413" y1="148.882" x2="34.1326" y2="173.152" gradientUnits="userSpaceOnUse">
<stop stop-color="white"/>
<stop offset="1" stop-color="white" stop-opacity="0"/>
</linearGradient>
<linearGradient id="paint8_linear" x1="50.9651" y1="28.1133" x2="112.489" y2="132.332" gradientUnits="userSpaceOnUse">
<stop stop-color="white"/>
<stop offset="1" stop-color="white" stop-opacity="0"/>
</linearGradient>
</defs>
</svg>
