<svg width="244" height="167" viewBox="0 0 244 167" fill="none" xmlns="http://www.w3.org/2000/svg">
<path fill-rule="evenodd" clip-rule="evenodd" d="M15.3944 27.1376H18.1111V29.5074H15.3944V27.1376ZM15.3944 41.3562H18.1111V43.726H15.3944V41.3562ZM15.3944 54.7849H18.1111V57.1546H15.3944V54.7849ZM15.3944 68.2135H18.1111V70.5833H15.3944V68.2135ZM15.3944 82.4321H18.1111V84.8019H15.3944V82.4321ZM15.3944 95.8608H18.1111V98.2305H15.3944V95.8608ZM15.3944 109.289H18.1111V111.659H15.3944V109.289ZM15.3944 123.508H18.1111V125.878H15.3944V123.508ZM15.3944 136.937H18.1111V139.306H15.3944V136.937ZM15.3944 150.365H18.1111V152.735H15.3944V150.365ZM15.3944 164.584H18.1111V166.954H15.3944V164.584ZM-0.000244141 27.1376H2.71646V29.5074H-0.000244141V27.1376ZM-0.000244141 41.3562H2.71646V43.726H-0.000244141V41.3562ZM-0.000244141 54.7849H2.71646V57.1546H-0.000244141V54.7849ZM-0.000244141 68.2135H2.71646V70.5833H-0.000244141V68.2135ZM-0.000244141 82.4321H2.71646V84.8019H-0.000244141V82.4321ZM-0.000244141 95.8608H2.71646V98.2305H-0.000244141V95.8608ZM-0.000244141 109.289H2.71646V111.659H-0.000244141V109.289ZM-0.000244141 123.508H2.71646V125.878H-0.000244141V123.508ZM-0.000244141 136.937H2.71646V139.306H-0.000244141V136.937ZM-0.000244141 150.365H2.71646V152.735H-0.000244141V150.365ZM-0.000244141 164.584H2.71646V166.954H-0.000244141V164.584ZM31.6947 27.1376H34.4114V29.5074H31.6947V27.1376ZM31.6947 41.3562H34.4114V43.726H31.6947V41.3562ZM31.6947 54.7849H34.4114V57.1546H31.6947V54.7849ZM31.6947 68.2135H34.4114V70.5833H31.6947V68.2135ZM31.6947 82.4321H34.4114V84.8019H31.6947V82.4321ZM31.6947 95.8608H34.4114V98.2305H31.6947V95.8608ZM31.6947 109.289H34.4114V111.659H31.6947V109.289ZM31.6947 123.508H34.4114V125.878H31.6947V123.508ZM31.6947 136.937H34.4114V139.306H31.6947V136.937ZM31.6947 150.365H34.4114V152.735H31.6947V150.365ZM31.6947 164.584H34.4114V166.954H31.6947V164.584ZM47.0893 13.709H49.806V16.0787H47.0893V13.709ZM47.0893 27.1376H49.806V29.5074H47.0893V27.1376ZM47.0893 41.3562H49.806V43.726H47.0893V41.3562ZM47.0893 54.7849H49.806V57.1546H47.0893V54.7849ZM47.0893 68.2135H49.806V70.5833H47.0893V68.2135ZM47.0893 82.4321H49.806V84.8019H47.0893V82.4321ZM47.0893 95.8608H49.806V98.2305H47.0893V95.8608ZM47.0893 109.289H49.806V111.659H47.0893V109.289ZM47.0893 123.508H49.806V125.878H47.0893V123.508ZM47.0893 136.937H49.806V139.306H47.0893V136.937ZM47.0893 150.365H49.806V152.735H47.0893V150.365ZM47.0893 164.584H49.806V166.954H47.0893V164.584ZM63.3896 13.709H66.1063V16.0787H63.3896V13.709ZM63.3896 27.1376H66.1063V29.5074H63.3896V27.1376ZM63.3896 41.3562H66.1063V43.726H63.3896V41.3562ZM63.3896 54.7849H66.1063V57.1546H63.3896V54.7849ZM63.3896 68.2135H66.1063V70.5833H63.3896V68.2135ZM63.3896 82.4321H66.1063V84.8019H63.3896V82.4321ZM63.3896 95.8608H66.1063V98.2305H63.3896V95.8608ZM63.3896 109.289H66.1063V111.659H63.3896V109.289ZM63.3896 123.508H66.1063V125.878H63.3896V123.508ZM63.3896 136.937H66.1063V139.306H63.3896V136.937ZM63.3896 150.365H66.1063V152.735H63.3896V150.365ZM63.3896 164.584H66.1063V166.954H63.3896V164.584ZM78.7842 13.709H81.5009V16.0787H78.7842V13.709ZM78.7842 27.1376H81.5009V29.5074H78.7842V27.1376ZM78.7842 41.3562H81.5009V43.726H78.7842V41.3562ZM78.7842 54.7849H81.5009V57.1546H78.7842V54.7849ZM78.7842 68.2135H81.5009V70.5833H78.7842V68.2135ZM78.7842 82.4321H81.5009V84.8019H78.7842V82.4321ZM78.7842 95.8608H81.5009V98.2305H78.7842V95.8608ZM78.7842 109.289H81.5009V111.659H78.7842V109.289ZM78.7842 123.508H81.5009V125.878H78.7842V123.508ZM78.7842 136.937H81.5009V139.306H78.7842V136.937ZM78.7842 150.365H81.5009V152.735H78.7842V150.365ZM78.7842 164.584H81.5009V166.954H78.7842V164.584ZM94.1789 13.709H96.8956V16.0787H94.1789V13.709ZM94.1789 27.1376H96.8956V29.5074H94.1789V27.1376ZM94.1789 41.3562H96.8956V43.726H94.1789V41.3562ZM94.1789 54.7849H96.8956V57.1546H94.1789V54.7849ZM94.1789 68.2135H96.8956V70.5833H94.1789V68.2135ZM94.1789 82.4321H96.8956V84.8019H94.1789V82.4321ZM94.1789 95.8608H96.8956V98.2305H94.1789V95.8608ZM94.1789 109.289H96.8956V111.659H94.1789V109.289ZM94.1789 123.508H96.8956V125.878H94.1789V123.508ZM94.1789 136.937H96.8956V139.306H94.1789V136.937ZM94.1789 150.365H96.8956V152.735H94.1789V150.365ZM94.1789 164.584H96.8956V166.954H94.1789V164.584ZM110.479 13.709H113.196V16.0787H110.479V13.709ZM110.479 27.1376H113.196V29.5074H110.479V27.1376ZM110.479 41.3562H113.196V43.726H110.479V41.3562ZM110.479 54.7849H113.196V57.1546H110.479V54.7849ZM110.479 68.2135H113.196V70.5833H110.479V68.2135ZM110.479 82.4321H113.196V84.8019H110.479V82.4321ZM110.479 95.8608H113.196V98.2305H110.479V95.8608ZM110.479 109.289H113.196V111.659H110.479V109.289ZM110.479 123.508H113.196V125.878H110.479V123.508ZM110.479 136.937H113.196V139.306H110.479V136.937ZM110.479 150.365H113.196V152.735H110.479V150.365ZM110.479 164.584H113.196V166.954H110.479V164.584Z" fill="#26C6DA"/>
<path d="M186 20.2281H187.911V21.9012H186V20.2281ZM196.828 20.2281H198.738V21.9012H196.828V20.2281ZM208.292 20.2281H210.203V21.9012H208.292V20.2281ZM219.12 20.2281H221.031V21.9012H219.12V20.2281ZM229.948 20.2281H231.859V21.9012H229.948V20.2281ZM241.413 20.2281H243.323V21.9012H241.413V20.2281ZM186 0.708984H187.911V2.38206H186V0.708984ZM196.828 0.708984H198.738V2.38206H196.828V0.708984ZM208.292 0.708984H210.203V2.38206H208.292V0.708984ZM219.12 0.708984H221.031V2.38206H219.12V0.708984ZM229.948 0.708984H231.859V2.38206H229.948V0.708984ZM241.413 0.708984H243.323V2.38206H241.413V0.708984ZM186 10.1897H187.911V11.8628H186V10.1897ZM196.828 10.1897H198.738V11.8628H196.828V10.1897ZM208.292 10.1897H210.203V11.8628H208.292V10.1897ZM219.12 10.1897H221.031V11.8628H219.12V10.1897ZM229.948 10.1897H231.859V11.8628H229.948V10.1897ZM241.413 10.1897H243.323V11.8628H241.413V10.1897ZM186 29.7089H187.911V31.382H186V29.7089ZM196.828 29.7089H198.738V31.382H196.828V29.7089ZM208.292 29.7089H210.203V31.382H208.292V29.7089ZM219.12 29.7089H221.031V31.382H219.12V29.7089ZM229.948 29.7089H231.859V31.382H229.948V29.7089ZM241.413 29.7089H243.323V31.382H241.413V29.7089ZM186 39.1896H187.911V40.8627H186V39.1896ZM196.828 39.1896H198.738V40.8627H196.828V39.1896ZM208.292 39.1896H210.203V40.8627H208.292V39.1896ZM219.12 39.1896H221.031V40.8627H219.12V39.1896ZM229.948 39.1896H231.859V40.8627H229.948V39.1896ZM241.413 39.1896H243.323V40.8627H241.413V39.1896ZM186 49.2281H187.911V50.9011H186V49.2281ZM196.828 49.2281H198.738V50.9011H196.828V49.2281ZM208.292 49.2281H210.203V50.9011H208.292V49.2281ZM219.12 49.2281H221.031V50.9011H219.12V49.2281ZM229.948 49.2281H231.859V50.9011H229.948V49.2281ZM241.413 49.2281H243.323V50.9011H241.413V49.2281ZM186 58.7088H187.911V60.3819H186V58.7088ZM196.828 58.7088H198.738V60.3819H196.828V58.7088ZM208.292 58.7088H210.203V60.3819H208.292V58.7088ZM219.12 58.7088H221.031V60.3819H219.12V58.7088ZM229.948 58.7088H231.859V60.3819H229.948V58.7088ZM241.413 58.7088H243.323V60.3819H241.413V58.7088ZM186 68.1895H187.911V69.8626H186V68.1895ZM196.828 68.1895H198.738V69.8626H196.828V68.1895ZM208.292 68.1895H210.203V69.8626H208.292V68.1895ZM219.12 68.1895H221.031V69.8626H219.12V68.1895ZM229.948 68.1895H231.859V69.8626H229.948V68.1895ZM241.413 68.1895H243.323V69.8626H241.413V68.1895ZM186 78.2279H187.911V79.901H186V78.2279ZM196.828 78.2279H198.738V79.901H196.828V78.2279ZM208.292 78.2279H210.203V79.901H208.292V78.2279ZM219.12 78.2279H221.031V79.901H219.12V78.2279ZM229.948 78.2279H231.859V79.901H229.948V78.2279ZM241.413 78.2279H243.323V79.901H241.413V78.2279Z" fill="#546E7A" fill-opacity="0.54"/>
</svg>
